<?xml version="1.0" encoding="UTF-8" standalone="no"?>
<!-- Created with Inkscape (http://www.inkscape.org/) -->

<svg
   xmlns:dc="http://purl.org/dc/elements/1.1/"
   xmlns:cc="http://creativecommons.org/ns#"
   xmlns:rdf="http://www.w3.org/1999/02/22-rdf-syntax-ns#"
   xmlns:svg="http://www.w3.org/2000/svg"
   xmlns="http://www.w3.org/2000/svg"
   xmlns:sodipodi="http://sodipodi.sourceforge.net/DTD/sodipodi-0.dtd"
   xmlns:inkscape="http://www.inkscape.org/namespaces/inkscape"
   width="64"
   height="64"
   id="svg2"
   version="1.1"
   inkscape:version="0.48.3.1 r9886"
   sodipodi:docname="fav.svg">
  <defs
     id="defs4" />
  <sodipodi:namedview
     id="base"
     pagecolor="#ffffff"
     bordercolor="#666666"
     borderopacity="1.0"
     inkscape:pageopacity="0.0"
     inkscape:pageshadow="2"
     inkscape:zoom="4.2127258"
     inkscape:cx="33.999998"
     inkscape:cy="24.075964"
     inkscape:document-units="px"
     inkscape:current-layer="layer1"
     showgrid="false"
     inkscape:window-width="1280"
     inkscape:window-height="742"
     inkscape:window-x="0"
     inkscape:window-y="26"
     inkscape:window-maximized="1" />
  <metadata
     id="metadata7">
    <rdf:RDF>
      <cc:Work
         rdf:about="">
        <dc:format>image/svg+xml</dc:format>
        <dc:type
           rdf:resource="http://purl.org/dc/dcmitype/StillImage" />
        <dc:title></dc:title>
      </cc:Work>
    </rdf:RDF>
  </metadata>
  <g
     inkscape:label="レイヤー 1"
     inkscape:groupmode="layer"
     id="layer1"
     transform="translate(0,-988.36218)">
    <path
       sodipodi:type="star"
       style="fill:#ffff00;fill-rule:evenodd;stroke:#000000;stroke-width:1px;stroke-linecap:butt;stroke-linejoin:miter;stroke-opacity:1"
       id="path2985"
       sodipodi:sides="5"
       sodipodi:cx="340"
       sodipodi:cy="155.21933"
       sodipodi:r1="149.69356"
       sodipodi:r2="74.846779"
       sodipodi:arg1="-2.8797933"
       sodipodi:arg2="-2.2514747"
       inkscape:flatsided="false"
       inkscape:rounded="0.075"
       inkscape:randomized="0"
       d="m 195.40713,116.47579 c 1.92961,-7.20143 91.69628,-14.73145 97.49027,-19.423334 5.79399,-4.691882 31.82298,-90.9313447 39.26824,-91.3215338 7.44526,-0.3901892 42.34615,82.6560758 48.59884,86.7166188 6.25269,4.060542 96.31469,2.166126 98.98649,9.126409 2.67181,6.96029 -65.52492,65.81572 -67.45453,73.01715 -1.92962,7.20144 27.70276,92.27009 21.90877,96.96197 -5.79399,4.69188 -82.84278,-41.97973 -90.28803,-41.58954 -7.44526,0.39019 -79.19344,54.85993 -85.44613,50.79938 -6.25269,-4.06054 14.32526,-91.76061 11.65346,-98.7209 -2.6718,-6.96028 -76.647,-58.36478 -74.71738,-65.56622 z"
       inkscape:transform-center-x="0.12386799"
       inkscape:transform-center-y="-3.0165912"
       transform="matrix(0.20974041,0.00869742,-0.0083106,0.21950226,-37.898911,986.32263)" />
  </g>
</svg>
